<svg width="36" height="38" viewBox="0 0 36 38" fill="none" xmlns="http://www.w3.org/2000/svg">
<path d="M17.9876 28.7563C12.8988 28.7563 8.75684 24.3842 8.75684 18.9877C8.75684 13.6163 12.8988 9.24414 17.9876 9.24414C23.0764 9.24414 27.242 13.6163 27.242 19.0127C27.242 24.3842 23.1 28.7563 17.9876 28.7563ZM17.9876 12.492C14.603 12.492 11.8338 15.4151 11.8338 18.9877C11.8338 22.5854 14.603 25.5084 18.0113 25.5084C21.4196 25.5084 24.1888 22.5854 24.1888 18.9877C24.1651 15.4151 21.3959 12.492 17.9876 12.492Z" fill="black"/>
<path d="M26.6035 38H9.39645C4.21302 38 0 33.5529 0 28.0815V9.91847C0 4.44707 4.21302 0 9.39645 0H26.6035C31.787 0 36 4.44707 36 9.91847V28.0815C36 33.5529 31.787 38 26.6035 38ZM9.39645 3.24786C5.91716 3.24786 3.07692 6.24589 3.07692 9.91847V28.0815C3.07692 31.7541 5.91716 34.7521 9.39645 34.7521H26.6035C30.0828 34.7521 32.9231 31.7541 32.9231 28.0815V9.91847C32.9231 6.24589 30.0828 3.24786 26.6035 3.24786H9.39645V3.24786Z" fill="black"/>
<path d="M27.5032 11.0429C28.6797 11.0429 29.6334 10.0362 29.6334 8.79442C29.6334 7.5526 28.6797 6.5459 27.5032 6.5459C26.3268 6.5459 25.373 7.5526 25.373 8.79442C25.373 10.0362 26.3268 11.0429 27.5032 11.0429Z" fill="black"/>
</svg>
