<svg width="39" height="32" viewBox="0 0 39 32" fill="none" xmlns="http://www.w3.org/2000/svg">
<g clip-path="url(#clip0_105_102)">
<path d="M38.8969 4.22987C38.093 5.38701 37.186 6.43895 36.1554 7.38569C35.0423 8.41659 35.2484 9.11087 35.1247 10.5205C34.9598 12.6454 34.527 14.6861 33.8467 16.6848C32.5069 20.6191 30.1158 24.1326 27.0238 26.8255C19.6031 33.2844 8.14218 33.5579 0 28.4034C5.99841 28.6559 8.69873 27.4146 11.8113 25.0372C8.67812 24.5744 5.85412 23.7118 4.30814 19.3147C5.8129 19.7355 6.88478 19.5251 7.81237 19.2726C4.92653 18.3469 1.52537 16.9163 1.52537 11.2358C2.76216 11.9932 4.4112 12.3088 5.13266 12.2036C1.23679 9.44749 0.92759 4.81896 2.70032 1.3686C5.21512 5.19766 14.491 10.5625 18.6961 9.6158C18.222 5.74467 20.2627 1.83145 24.0143 0.527047C26.1374 -0.209311 28.24 -0.167233 30.3219 0.674318C31.1258 1.01094 31.9503 1.53691 32.5687 2.16807C32.6718 2.27327 32.7542 2.35742 32.8985 2.37846C32.981 2.3995 33.084 2.3995 33.1665 2.35742C34.63 1.93665 36.9181 0.905745 37.5571 0.548086C37.8044 0.400814 36.2585 4.14572 34.1559 5.05039C35.1041 4.84 37.3303 4.14572 38.2579 3.74598C38.4434 3.66183 38.6496 3.61975 38.7939 3.68286C39 3.74598 39.1031 3.95637 38.8969 4.22987Z" fill="black"/>
</g>
<defs>
<clipPath id="clip0_105_102">
<rect width="39" height="32" fill="white"/>
</clipPath>
</defs>
</svg>
