<svg width="39" height="38" viewBox="0 0 39 38" fill="none" xmlns="http://www.w3.org/2000/svg">
<path d="M32.3619 20.628C31.7314 19.8522 31.9118 19.507 32.3619 18.8135C32.37 18.8056 37.5749 11.7977 38.1111 9.42116L38.1144 9.41958C38.3809 8.55349 38.1144 7.91699 36.8258 7.91699H32.5618C31.4763 7.91699 30.9757 8.46324 30.7076 9.07441C30.7076 9.07441 28.5366 14.1379 25.4654 17.4202C24.4741 18.3686 24.0159 18.6726 23.4748 18.6726C23.2083 18.6726 22.7939 18.3686 22.7939 17.5025V9.41958C22.7939 8.38091 22.49 7.91699 21.5914 7.91699H14.8866C14.2058 7.91699 13.8011 8.40149 13.8011 8.85274C13.8011 9.83758 15.3368 10.064 15.496 12.8348V18.8467C15.496 20.1641 15.2506 20.4063 14.7063 20.4063C13.2568 20.4063 9.73863 15.3222 7.65375 9.50349C7.23288 8.37458 6.82175 7.91858 5.72813 7.91858H1.4625C0.245375 7.91858 0 8.46483 0 9.07599C0 10.1558 1.4495 15.5249 6.7405 22.6182C10.2667 27.4601 15.2328 30.0837 19.7503 30.0837C22.4656 30.0837 22.7971 29.501 22.7971 28.4987C22.7971 23.8722 22.5518 23.4352 23.9119 23.4352C24.5424 23.4352 25.6279 23.7392 28.1629 26.0747C31.0602 28.8439 31.5364 30.0837 33.1581 30.0837H37.4221C38.6376 30.0837 39.2535 29.501 38.8992 28.3515C38.0884 25.9337 32.6089 20.9605 32.3619 20.628V20.628Z" fill="black"/>
</svg>
